<svg xmlns="http://www.w3.org/2000/svg" width="32" height="32" viewBox="0 0 32 32">
  <path d="M2.4725,1.0053h26.76V31.11H2.4725Zm2.2643,2.43h22.128V24.3494H4.7368Z" fill-rule="evenodd"/>
  <path d="M22.4524,20.4443c-2.5563-.59-4.9358-1.1075-3.7836-3.2839,3.5086-6.6245.93-10.1672-2.7742-10.1672-3.7776,0-6.2916,3.6787-2.7741,10.1672,1.1871,2.189-1.2823,2.7064-3.7836,3.2839-2.2843.5278-2.37,1.6621-2.3624,3.6453l.003.7433H24.81l.003-.72C24.8222,22.1146,24.7449,20.9743,22.4524,20.4443Z"/>
  <circle cx="23.4642" cy="24.5398" r="4.4599" fill="#fff"/>
  <path d="M26.4246,23.8h-2.22v-2.22h-1.48V23.8h-2.22v1.48h2.22V27.5h1.48V25.28h2.22Z"/>
</svg>
