<svg xmlns="http://www.w3.org/2000/svg" width="32" height="32" viewBox="0 0 32 32">
  <path d="M1.9443.4111H29.7436V31.6853H1.9443ZM4.2966,2.935H27.2844V24.6623H4.2966Z" fill-rule="evenodd"/>
  <path d="M21.4018,20.4357c-2.1494-.4963-4.15-.9313-3.1814-2.7613,2.95-5.57.7819-8.5487-2.3325-8.5487-3.1764,0-5.29,3.0931-2.3326,8.5487.9981,1.8407-1.0782,2.2757-3.1814,2.7613-1.9207.4437-1.9926,1.3975-1.9863,3.065l.0025.625H23.3844l.0025-.6056C23.3944,21.84,23.3294,20.8813,21.4018,20.4357Z"/>
  <path d="M22.9605,3.3437a4,4,0,1,0,4,4A4,4,0,0,0,22.9605,3.3437Zm2.9252,4.4252h-2.5v2.5h-1v-2.5h-2.5v-1h2.5v-2.5h1v2.5h2.5Z"/>
</svg>
