<svg xmlns="http://www.w3.org/2000/svg" width="32" height="32" viewBox="0 0 32 32">
  <circle cx="16" cy="16" r="14" fill="#fff"/>
  <path d="M25.487,14.5644c.3276.8006-.1495.1967-.3079.4833.0618.13.4035.4369-.005.3953-1.2164.3885.65.9687.0972,2.1228-.8988.5713-.3668-.2743-.906-.5761.2385.2937.1943.6691-.2084.7514-1.0586-1.0434-.2025.3662.1708.7214-.027.2682-.5168.3489-.5748.638-.2117-.1323-.9446-.9123-.5343-.302.1558.0715.4273.4558.1125.4387-.3586-.2917-.5059.3419-.5686.5956-.2743-.1524-.3531.4066-.5571.4864-.4872-.3731-.0594,1.1613-.62.4477-1.3415-.5386,1.1434,1.8583.4084,1.8717-.2311-.0649-1.38.4846-.9238.7136,1.65-.9745,1.9128,1.7361,2.3579,2.9673.0521.2816-2.0451.8981-2.1626.7984-.1478-.4234-.7994-.3654-.8828-.7429.2652-.287.5387.5161.8206.1221.16-.2861-.1517-.3991-.25-.5957-.0221-.3212-.1334-.4757-.3833-.2035-.3115.1965-.26-.26-.4971-.1987.1692.2313.1463.2173-.0979.3891-.2526.2931-.2646-.1407-.454-.0784-.1549.288.402.4122.1857.6872-.1629.2348-.25-.0662-.4323-.033-.1067.6155-1.1806-.7667-1.6269-.2917-.1589.3232-1.2484.1356-1.1108.3274,1.3777-.2809.894,1.2092.588.7291-2.511-.1938-6.8,2.2839-8.4329.0237-.1683-1.4,3.6291.2295,2.4673-.6365-.1486-.6864-1.046.0342-1.1692-.7932.1586-.2933.4638-.0352.2744-.4885.4074-.58-.0082-.1176-.1726-.3137-.048-.1237.1527-.1237.1726-.2138.045-.2013-.4-.316-.4012-.0139-.82-1.3022-2.232-.9869-3.37-1.763-1.1069-.648-1.34-4.2659.1908-5.3866.7488.2313.1465-.0477.0238-.32.1043-.6181.3409-.14.6368-.1.2207-.1694-.2534-.61.3754-.44-.1364-.5712-.674-.1223.2825-1.027.3788-.4975.1661-.0171.4283-.0591.14-.3678.2258.1526.5092.033.0121-.24-.1059-.2156-.2854-.327-.3169-.2334.432-.6264.6151-.4361.1246.0913.1995.251.3812.1747.1539-.0642,0-.0824-.0449-.1875-.0219-.386.2246.0418.3464.0755.4618-.1311-.0886-.2684-.0748-.4632.0617-.1832.3318.0833.4523-.0445.1456-.3107-.24-.1119-.0549-.619-.0988.1387-1.018.9846-.7718.5005.5558-1.2435-1.3046,1.6224-1.31.0112.06-.2478-.2025-.3992-.2107-.6124.19-.035.3146.1813.3357.3378-.12.5342.5993.6375.4952.05-2.3809-2.2815.8-1.2032,1.8225-4.9526.2381-.7311,1.6557.5114,2.3236-.8524.3752.1062.1276,1.0089.5758.9268-.9408-1.4647.9841-2.6137.477-4.0843.0975-2.7485,4.331.78,4.3172,2.2051-.5885.2132.2658.4579.1776.8036.37.2521-.273.127-.012.3157.4077.2124.7064.62,1.0907.7563-.1045.18-.5076.1387.0441.2636.2811.2083-.5448.2963.1317.4141,1.1573.7094-.0779.5479.5879.819.5814.2876.1119.2235.3037.4512.2123.107-.02.2648.0767.3645.3434.3559.3566,1.0111.74.2616.2112.6976,1.235-.6476,1.6236-.9533,1.7612-1.4574.8047,1.1976,1.6779,1.8006.2758.1689.0914,1.1536.3993,1.13C25.3822,13.3878,25.3934,14.4166,25.487,14.5644Z"/>
  <path d="M15.9808,16.2659c1.3876,0,2.94,2.5513,3.18,3.6317s-.415,1.97-1.4517,1.7133A12.7444,12.7444,0,0,0,16,21.073a7.0271,7.0271,0,0,0-1.4946.5216c-1.1071.3817-1.9654-.5345-1.6708-1.697C13.1571,18.6263,14.7013,16.2659,15.9808,16.2659Zm4.4972-1.8291c.495.2246.6787,1.175.3725,2.1958-.2934.9754-.9709,1.5858-1.8984,1.165-.8046-.3654-.8992-1.3242-.3725-2.1958C19.11,14.7239,19.9825,14.2118,20.478,14.4368Zm-9.1534.2942c-.435.3037-.4417,1.2483.0341,2.1729.455.8833,1.2138,1.3483,2.0284.7791.7066-.4937.6266-1.43-.0342-2.1729C12.6879,14.763,11.76,14.4272,11.3246,14.731Zm6.5179-3.0384c.5513.1046.9671,1.0117.9092,2.1092-.0558,1.0487-.5854,1.8258-1.6175,1.63-.8954-.17-1.2242-1.1071-.9088-2.1088C16.5425,12.3143,17.2917,11.5881,17.8425,11.6926Zm-4.29.0242c-.5283.1879-.8,1.1483-.5737,2.2237.2162,1.028.8591,1.7142,1.8487,1.3621.8584-.305,1.0392-1.2821.5738-2.2233C14.9329,12.131,14.0812,11.5289,13.5529,11.7168Z" fill="#fff" fill-rule="evenodd"/>
</svg>
