<svg xmlns="http://www.w3.org/2000/svg" width="32" height="32" viewBox="0 0 32 32">
  <path d="M27.4645,14.29c.3931.934-.1794.2295-.3694.5638.0741.1522.4842.51-.0061.4612-1.46.4533.78,1.13.1167,2.4767-1.0785.6665-.44-.32-1.0872-.6723.2862.3427.2331.7807-.25.8767-1.27-1.2172-.243.4272.205.8416-.0325.3129-.62.4071-.69.7444-.2541-.1544-1.1335-1.0644-.6412-.3523.187.0834.5129.5318.135.5118-.43-.34-.607.3989-.6823.6948-.3291-.1777-.4237.4744-.6685.5675-.5846-.4353-.0712,1.3549-.7439.5224-1.61-.6284,1.3721,2.1679.49,2.1835-.2773-.0756-1.656.5654-1.1086.8326,1.98-1.1369,2.2954,2.0254,2.8295,3.4619.0626.3285-2.454,1.0478-2.5951.9314-.1773-.494-.9592-.4263-1.0594-.8667.3183-.3348.6464.6022.9848.1424.1914-.3337-.1821-.4655-.3-.6949-.0266-.3747-.16-.555-.46-.2375-.3737.2293-.3125-.303-.5964-.2317.203.27.1755.2535-.1175.4538-.3032.3421-.3175-.1641-.5449-.0914-.1858.336.4825.4809.2229.8017-.1955.274-.3-.0772-.5188-.0385-.128.7181-1.4167-.8944-1.9523-.34-.1906.3771-1.498.1583-1.3329.382,1.6532-.3277,1.0728,1.4107.7056.8507-3.0132-.2262-8.16,2.6644-10.1194.0276-.202-1.633,4.3548.2678,2.9607-.7427-.1783-.8007-1.2552.04-1.403-.9253.19-.3422.5565-.0411.3293-.57.4889-.6766-.01-.1373-.2072-.366-.0576-.1443.1832-.1443.2072-.2494.0539-.2349-.48-.3687-.4815-.0162-.9844-1.5193-2.6784-1.1514-4.0444-2.0569-1.3283-.756-1.6073-4.9769.229-6.2844.8985.27.1757-.0556.0285-.3732.1252-.7212.4091-.1637.7642-.1167.2648-.1976-.3041-.7112.4505-.513-.1637-.6665-.8089-.1427.339-1.1982.4545-.58.1992-.02.5139-.069.1687-.4291.271.1781.6111.0386.0145-.28-.1271-.2516-.3425-.3816-.38-.2723.5184-.7308.7381-.5087.15.1064.2394.2927.4574.2037.1848-.0748,0-.096-.0539-.2187-.0262-.45.27.0488.4157.0881.5543-.1529-.1062-.3131-.09-.54.0741-.2137.3982.0971.5428-.052.1747-.3624-.2885-.13-.0659-.7221-.1186.1618-1.2217,1.1488-.9261.5839.6669-1.4507-1.5656,1.8928-1.5722.0131.0719-.289-.243-.4657-.2528-.7145.2277-.0408.3775.2115.4028.3942-.1436.6231.7192.7437.5942.0587-2.8571-2.6618.96-1.4038,2.187-5.7781.2858-.853,1.9869.5966,2.7883-.9945.45.1239.1532,1.177.691,1.0813-1.1289-1.7088,1.1809-3.0493.5724-4.7651.1171-3.2065,5.1973.91,5.1807,2.5727-.7062.2487.3189.5342.2131.9375.4444.2942-.3276.1482-.0144.3683.4892.2478.8477.7233,1.3088.8824-.1254.21-.6091.1618.0529.3075.3374.2431-.6537.3457.1581.4832,1.3888.8276-.0935.6391.7055.9555.6976.3354.1342.2607.3644.5263.2548.1249-.0236.3089.092.4253.4122.4152.4279,1.18.8877.3052.2534.8139,1.482-.7555,1.9483-1.1122,2.1134-1.7.9657,1.3972,2.0134,2.1007.331.1971.11,1.3459.4793,1.3186C27.3387,12.9175,27.3522,14.1178,27.4645,14.29Z"/>
  <path d="M15.8948,17.6294c1.665,0,3.5285,3.0615,3.816,4.358s-.498,2.3645-1.742,2.056a15.2979,15.2979,0,0,0-2.051-.6455,8.4334,8.4334,0,0,0-1.7935.626c-1.3285.458-2.3585-.6415-2.005-2.0365C12.5063,20.4619,14.3593,17.6294,15.8948,17.6294Zm5.3965-2.195c.594.27.8146,1.41.447,2.635-.352,1.17-1.165,1.903-2.278,1.398-.9655-.4385-1.079-1.589-.447-2.635C19.65,15.7789,20.6968,15.1644,21.2913,15.4344Zm-10.984.353c-.522.3645-.53,1.498.041,2.6075.546,1.06,1.4565,1.618,2.434.935.848-.5925.752-1.7165-.041-2.6075C11.9433,15.8259,10.8293,15.4229,10.3073,15.7874Zm7.8215-3.6459c.6615.1255,1.1605,1.2139,1.091,2.5309-.067,1.2585-.7025,2.191-1.941,1.956-1.0745-.2035-1.469-1.3285-1.09-2.53C16.5688,12.8875,17.4678,12.016,18.1288,12.1415Zm-5.1475.029c-.634.2255-.96,1.3779-.6885,2.6684.26,1.2335,1.031,2.057,2.2185,1.6345,1.03-.366,1.247-1.5385.6885-2.668C14.6373,12.6675,13.6153,11.945,12.9813,12.1705Z" fill="#fff" fill-rule="evenodd"/>
</svg>
