<svg xmlns="http://www.w3.org/2000/svg" width="32" height="32" viewBox="0 0 32 32">
  <rect y="-0.1816" width="32" height="32" fill="#fff"/>
  <path d="M15.954,15c3.33,0,7.057,6.123,7.632,8.716s-.996,4.729-3.484,4.112C19.01,27.557,16.85,26.521,16,26.537c-.925.016-2.379.836-3.587,1.252-2.657.916-4.717-1.283-4.01-4.073C9.177,20.665,12.883,15,15.954,15Zm10.793-4.39c1.188.539,1.629,2.82.894,5.27-.704,2.341-2.33,3.806-4.556,2.796-1.931-.877-2.158-3.178-.894-5.27C23.465,11.299,25.558,10.07,26.747,10.61Zm-21.968.706c-1.044.729-1.06,2.996.082,5.215,1.092,2.12,2.913,3.236,4.868,1.87,1.696-1.185,1.504-3.433-.082-5.215C8.051,11.393,5.823,10.587,4.779,11.316ZM20.422,4.024c1.323.251,2.321,2.428,2.182,5.062-.134,2.517-1.405,4.382-3.882,3.912-2.149-.407-2.938-2.657-2.181-5.061C17.302,5.516,19.1,3.773,20.422,4.024Zm-10.295.058c-1.268.451-1.92,2.756-1.377,5.337.519,2.467,2.062,4.114,4.437,3.269,2.06-.732,2.494-3.077,1.377-5.336C13.439,5.076,11.395,3.631,10.127,4.082Z" fill-rule="evenodd"/>
</svg>
